<?xml version="1.0" encoding="utf-8"?>
<!-- Generator: Adobe Illustrator 25.2.3, SVG Export Plug-In . SVG Version: 6.00 Build 0)  -->
<svg version="1.1" id="Layer_1" xmlns="http://www.w3.org/2000/svg" xmlns:xlink="http://www.w3.org/1999/xlink" x="0px" y="0px"
	 viewBox="0 0 355.5 119.2" style="enable-background:new 0 0 355.5 119.2;" xml:space="preserve">
<g>
	<path d="M0,44.9l6.9-7.6c2.8,3.1,5.6,4.9,9,4.9c4.1,0,6.6-2.5,6.6-8.2V2.1h11.2v32.4c0,5.9-1.7,10.2-4.7,13.2
		c-3,3-7.5,4.6-12.9,4.6C8.5,52.3,3.4,48.9,0,44.9z"/>
	<path d="M41.8,32.9v-0.1c0-10.9,8.8-19.7,20.6-19.7c11.7,0,20.4,8.7,20.4,19.6v0.1c0,10.9-8.8,19.7-20.6,19.7
		C50.5,52.4,41.8,43.7,41.8,32.9z M72.2,32.9v-0.1c0-5.6-4-10.5-10-10.5c-6.1,0-9.8,4.7-9.8,10.3v0.1c0,5.6,4,10.5,10,10.5
		C68.5,43.2,72.2,38.4,72.2,32.9z"/>
	<path d="M90.6,13.7h10.7v5.4c2.5-3.2,5.7-6.1,11.1-6.1c8.1,0,12.9,5.4,12.9,14.1v24.5h-10.7V30.5c0-5.1-2.4-7.7-6.5-7.7
		c-4.1,0-6.7,2.6-6.7,7.7v21.1H90.6V13.7z"/>
	<path d="M153.6,44.4l6.4-7.7c4.5,3.7,9.1,6,14.8,6c4.5,0,7.1-1.8,7.1-4.7v-0.1c0-2.8-1.7-4.2-10-6.3c-10-2.5-16.4-5.3-16.4-15.1
		v-0.1c0-9,7.2-14.9,17.3-14.9c7.2,0,13.4,2.3,18.4,6.3l-5.7,8.2c-4.4-3-8.7-4.9-12.9-4.9c-4.2,0-6.4,1.9-6.4,4.3v0.1
		c0,3.3,2.1,4.3,10.7,6.5c10,2.6,15.7,6.2,15.7,14.8V37c0,9.8-7.5,15.3-18.2,15.3C167.1,52.3,159.5,49.7,153.6,44.4z"/>
	<path d="M201,13.7h10.7v5.4c2.5-3.2,5.7-6.1,11.2-6.1c4.9,0,8.7,2.2,10.7,6c3.3-3.9,7.3-6,12.4-6c8,0,12.8,4.8,12.8,13.9v24.7
		h-10.7V30.5c0-5.1-2.3-7.7-6.3-7.7c-4,0-6.5,2.6-6.5,7.7v21.1h-10.7V30.5c0-5.1-2.3-7.7-6.3-7.7s-6.5,2.6-6.5,7.7v21.1H201V13.7z"
		/>
	<path d="M268.4,0h11.3v9.5h-11.3V0z M268.7,13.7h10.7v37.9h-10.7V13.7z"/>
	<path d="M291.3,40.8V22.9h-4.5v-9.2h4.5V4H302v9.7h8.9v9.2H302v16.2c0,2.5,1.1,3.7,3.5,3.7c2,0,3.7-0.5,5.3-1.3V50
		c-2.3,1.3-4.9,2.2-8.5,2.2C295.7,52.2,291.3,49.6,291.3,40.8z"/>
	<path d="M318.8,0h10.7v19.1c2.5-3.2,5.7-6.1,11.1-6.1c8.1,0,12.9,5.4,12.9,14.1v24.5h-10.7V30.5c0-5.1-2.4-7.7-6.5-7.7
		s-6.7,2.6-6.7,7.7v21.1h-10.7V0z"/>
	<path d="M4.2,68.9h16.1c15.5,0,26.3,10.7,26.3,24.7v0.1c0,13.9-10.7,24.7-26.3,24.7H4.2V68.9z M6.6,71.1v45.1h13.8
		c14.2,0,23.7-9.9,23.7-22.4v-0.1c0-12.5-9.5-22.5-23.8-22.5H6.6z"/>
	<path d="M66.2,68.9H101v2.2H68.6v21.3h29.3v2.2H68.6v21.6h32.8v2.2H66.2V68.9z"/>
	<path d="M116.8,111.2l1.6-1.8c5.2,4.9,11,7.5,18.2,7.5c8.6,0,14.1-4.7,14.1-10.9v-0.1c0-5.8-3.3-8.9-15.3-11.4
		c-12.1-2.4-16.8-6.2-16.8-13.4V81c0-7.1,6.7-12.8,16-12.8c6.8,0,12.2,2.1,16.8,5.8l-1.5,1.9c-4.5-3.6-9.7-5.5-15.5-5.5
		c-8.1,0-13.5,4.9-13.5,10.4v0.1c0,5.7,3.3,8.9,15.3,11.4c12.3,2.5,16.7,6.4,16.7,13.4v0.1c0,7.6-6.6,13.3-16.7,13.3
		C128.9,119.1,122.4,116.3,116.8,111.2z"/>
	<path d="M172.9,68.9h2.4v49.5h-2.4V68.9z"/>
	<path d="M195.4,93.8v-0.1c0-13.3,9.5-25.6,24.4-25.6c7.8,0,12.6,2.3,17.5,6.4l-1.6,1.8c-4.3-3.6-8.8-6.1-16.1-6.1
		c-13.1,0-21.8,11.2-21.8,23.3v0.1c0,12.8,8.3,23.4,22.2,23.4c6.9,0,12.9-3,16.9-6.4V95.6h-17.6v-2.3h19.9v18.4
		c-4.6,4.2-11.3,7.6-19.3,7.6C204.4,119.2,195.4,107.6,195.4,93.8z"/>
	<path d="M259.8,68.9h2.2l36.2,45.4V68.9h2.3v49.5h-1.9l-36.5-45.7v45.7h-2.3V68.9z"/>
	<path d="M319.1,111.2l1.6-1.8c5.2,4.9,11,7.5,18.2,7.5c8.6,0,14.1-4.7,14.1-10.9v-0.1c0-5.8-3.3-8.9-15.3-11.4
		c-12.1-2.4-16.8-6.2-16.8-13.4V81c0-7.1,6.7-12.8,16-12.8c6.8,0,12.2,2.1,16.8,5.8l-1.5,1.9c-4.5-3.6-9.7-5.5-15.5-5.5
		c-8.1,0-13.5,4.9-13.5,10.4v0.1c0,5.7,3.3,8.9,15.3,11.4c12.3,2.5,16.7,6.4,16.7,13.4v0.1c0,7.6-6.6,13.3-16.7,13.3
		C331.1,119.1,324.7,116.3,319.1,111.2z"/>
</g>
</svg>
